<mxfile host="app.diagrams.net" agent="Mozilla/5.0 (Windows NT 10.0; Win64; x64) AppleWebKit/537.36 (KHTML, like Gecko) Chrome/138.0.0.0 Safari/537.36" version="28.2.0">
  <diagram id="zyJ3Icx23RCnWpEzb_S5" name="Page-1">
    <mxGraphModel dx="1026" dy="837" grid="1" gridSize="2" guides="1" tooltips="1" connect="1" arrows="1" fold="1" page="1" pageScale="1" pageWidth="1169" pageHeight="827" math="0" shadow="0">
      <root>
        <mxCell id="0" />
        <mxCell id="1" parent="0" />
        <mxCell id="n7IsdOz3dWg-6jc3cimt-52" style="edgeStyle=none;shape=connector;rounded=0;orthogonalLoop=1;jettySize=auto;html=1;strokeColor=default;align=center;verticalAlign=middle;fontFamily=Helvetica;fontSize=11;fontColor=default;labelBackgroundColor=default;endArrow=none;endFill=0;entryX=0;entryY=0.5;entryDx=0;entryDy=0;" edge="1" parent="1" source="n7IsdOz3dWg-6jc3cimt-2" target="n7IsdOz3dWg-6jc3cimt-43">
          <mxGeometry relative="1" as="geometry" />
        </mxCell>
        <mxCell id="n7IsdOz3dWg-6jc3cimt-2" value="1" style="ellipse;whiteSpace=wrap;html=1;aspect=fixed;fontFamily=Times New Roman;fillColor=#d5e8d4;strokeColor=default;" vertex="1" parent="1">
          <mxGeometry x="460" y="130" width="20" height="20" as="geometry" />
        </mxCell>
        <mxCell id="n7IsdOz3dWg-6jc3cimt-54" style="edgeStyle=none;shape=connector;rounded=0;orthogonalLoop=1;jettySize=auto;html=1;entryX=0;entryY=0.5;entryDx=0;entryDy=0;strokeColor=default;align=center;verticalAlign=middle;fontFamily=Helvetica;fontSize=11;fontColor=default;labelBackgroundColor=default;endArrow=none;endFill=0;exitX=1;exitY=0.5;exitDx=0;exitDy=0;" edge="1" parent="1" source="n7IsdOz3dWg-6jc3cimt-4" target="n7IsdOz3dWg-6jc3cimt-43">
          <mxGeometry relative="1" as="geometry" />
        </mxCell>
        <mxCell id="n7IsdOz3dWg-6jc3cimt-55" style="edgeStyle=none;shape=connector;rounded=0;orthogonalLoop=1;jettySize=auto;html=1;entryX=0;entryY=0.5;entryDx=0;entryDy=0;strokeColor=default;align=center;verticalAlign=middle;fontFamily=Helvetica;fontSize=11;fontColor=default;labelBackgroundColor=default;endArrow=none;endFill=0;" edge="1" parent="1" source="n7IsdOz3dWg-6jc3cimt-4" target="n7IsdOz3dWg-6jc3cimt-44">
          <mxGeometry relative="1" as="geometry" />
        </mxCell>
        <mxCell id="n7IsdOz3dWg-6jc3cimt-4" value="2" style="ellipse;whiteSpace=wrap;html=1;aspect=fixed;fontFamily=Times New Roman;fillColor=#d5e8d4;strokeColor=default;" vertex="1" parent="1">
          <mxGeometry x="460" y="160" width="20" height="20" as="geometry" />
        </mxCell>
        <mxCell id="n7IsdOz3dWg-6jc3cimt-56" style="edgeStyle=none;shape=connector;rounded=0;orthogonalLoop=1;jettySize=auto;html=1;entryX=0;entryY=0.5;entryDx=0;entryDy=0;strokeColor=default;align=center;verticalAlign=middle;fontFamily=Helvetica;fontSize=11;fontColor=default;labelBackgroundColor=default;endArrow=none;endFill=0;exitX=1;exitY=0.5;exitDx=0;exitDy=0;" edge="1" parent="1" source="n7IsdOz3dWg-6jc3cimt-7" target="n7IsdOz3dWg-6jc3cimt-45">
          <mxGeometry relative="1" as="geometry" />
        </mxCell>
        <mxCell id="n7IsdOz3dWg-6jc3cimt-57" style="edgeStyle=none;shape=connector;rounded=0;orthogonalLoop=1;jettySize=auto;html=1;exitX=1;exitY=0.5;exitDx=0;exitDy=0;entryX=0;entryY=0.5;entryDx=0;entryDy=0;strokeColor=default;align=center;verticalAlign=middle;fontFamily=Helvetica;fontSize=11;fontColor=default;labelBackgroundColor=default;endArrow=none;endFill=0;" edge="1" parent="1" source="n7IsdOz3dWg-6jc3cimt-7" target="n7IsdOz3dWg-6jc3cimt-44">
          <mxGeometry relative="1" as="geometry" />
        </mxCell>
        <mxCell id="n7IsdOz3dWg-6jc3cimt-7" value="3" style="ellipse;whiteSpace=wrap;html=1;aspect=fixed;fontFamily=Times New Roman;fillColor=#f8cecc;strokeColor=default;" vertex="1" parent="1">
          <mxGeometry x="460" y="190" width="20" height="20" as="geometry" />
        </mxCell>
        <mxCell id="n7IsdOz3dWg-6jc3cimt-58" style="edgeStyle=none;shape=connector;rounded=0;orthogonalLoop=1;jettySize=auto;html=1;exitX=1;exitY=0.5;exitDx=0;exitDy=0;entryX=0;entryY=0.5;entryDx=0;entryDy=0;strokeColor=default;align=center;verticalAlign=middle;fontFamily=Helvetica;fontSize=11;fontColor=default;labelBackgroundColor=default;endArrow=none;endFill=0;" edge="1" parent="1" source="n7IsdOz3dWg-6jc3cimt-10" target="n7IsdOz3dWg-6jc3cimt-46">
          <mxGeometry relative="1" as="geometry" />
        </mxCell>
        <mxCell id="n7IsdOz3dWg-6jc3cimt-10" value="4" style="ellipse;whiteSpace=wrap;html=1;aspect=fixed;fontFamily=Times New Roman;fillColor=#f8cecc;strokeColor=default;" vertex="1" parent="1">
          <mxGeometry x="460" y="220" width="20" height="20" as="geometry" />
        </mxCell>
        <mxCell id="n7IsdOz3dWg-6jc3cimt-43" value="A" style="ellipse;whiteSpace=wrap;html=1;aspect=fixed;fontFamily=Times New Roman;fillColor=#ffe6cc;strokeColor=default;" vertex="1" parent="1">
          <mxGeometry x="540" y="130" width="20" height="20" as="geometry" />
        </mxCell>
        <mxCell id="n7IsdOz3dWg-6jc3cimt-44" value="B" style="ellipse;whiteSpace=wrap;html=1;aspect=fixed;fontFamily=Times New Roman;fillColor=#ffe6cc;strokeColor=default;" vertex="1" parent="1">
          <mxGeometry x="540" y="160" width="20" height="20" as="geometry" />
        </mxCell>
        <mxCell id="n7IsdOz3dWg-6jc3cimt-45" value="C" style="ellipse;whiteSpace=wrap;html=1;aspect=fixed;fontFamily=Times New Roman;fillColor=#ffe6cc;strokeColor=default;" vertex="1" parent="1">
          <mxGeometry x="540" y="190" width="20" height="20" as="geometry" />
        </mxCell>
        <mxCell id="n7IsdOz3dWg-6jc3cimt-46" value="D" style="ellipse;whiteSpace=wrap;html=1;aspect=fixed;fontFamily=Times New Roman;fillColor=#ffe6cc;strokeColor=default;" vertex="1" parent="1">
          <mxGeometry x="540" y="220" width="20" height="20" as="geometry" />
        </mxCell>
        <mxCell id="n7IsdOz3dWg-6jc3cimt-59" value="" style="endArrow=none;dashed=1;html=1;dashPattern=1 3;strokeWidth=1;rounded=0;strokeColor=#666666;align=center;verticalAlign=middle;fontFamily=Helvetica;fontSize=11;fontColor=default;labelBackgroundColor=default;fillColor=#f5f5f5;" edge="1" parent="1">
          <mxGeometry width="50" height="50" relative="1" as="geometry">
            <mxPoint x="459" y="185" as="sourcePoint" />
            <mxPoint x="481" y="185" as="targetPoint" />
          </mxGeometry>
        </mxCell>
        <mxCell id="n7IsdOz3dWg-6jc3cimt-60" style="edgeStyle=none;shape=connector;rounded=0;orthogonalLoop=1;jettySize=auto;html=1;strokeColor=default;align=center;verticalAlign=middle;fontFamily=Helvetica;fontSize=11;fontColor=default;labelBackgroundColor=default;endArrow=none;endFill=0;entryX=0;entryY=0.5;entryDx=0;entryDy=0;" edge="1" parent="1" source="n7IsdOz3dWg-6jc3cimt-61" target="n7IsdOz3dWg-6jc3cimt-70">
          <mxGeometry relative="1" as="geometry" />
        </mxCell>
        <mxCell id="n7IsdOz3dWg-6jc3cimt-61" value="1" style="ellipse;whiteSpace=wrap;html=1;aspect=fixed;fontFamily=Times New Roman;fillColor=#d5e8d4;strokeColor=default;" vertex="1" parent="1">
          <mxGeometry x="610" y="130" width="20" height="20" as="geometry" />
        </mxCell>
        <mxCell id="n7IsdOz3dWg-6jc3cimt-62" style="edgeStyle=none;shape=connector;rounded=0;orthogonalLoop=1;jettySize=auto;html=1;entryX=0;entryY=0.5;entryDx=0;entryDy=0;strokeColor=default;align=center;verticalAlign=middle;fontFamily=Helvetica;fontSize=11;fontColor=default;labelBackgroundColor=default;endArrow=none;endFill=0;exitX=1;exitY=0.5;exitDx=0;exitDy=0;" edge="1" parent="1" source="n7IsdOz3dWg-6jc3cimt-64" target="n7IsdOz3dWg-6jc3cimt-70">
          <mxGeometry relative="1" as="geometry" />
        </mxCell>
        <mxCell id="n7IsdOz3dWg-6jc3cimt-63" style="edgeStyle=none;shape=connector;rounded=0;orthogonalLoop=1;jettySize=auto;html=1;entryX=0;entryY=0.5;entryDx=0;entryDy=0;strokeColor=default;align=center;verticalAlign=middle;fontFamily=Helvetica;fontSize=11;fontColor=default;labelBackgroundColor=default;endArrow=none;endFill=0;" edge="1" parent="1" source="n7IsdOz3dWg-6jc3cimt-64" target="n7IsdOz3dWg-6jc3cimt-71">
          <mxGeometry relative="1" as="geometry" />
        </mxCell>
        <mxCell id="n7IsdOz3dWg-6jc3cimt-64" value="2" style="ellipse;whiteSpace=wrap;html=1;aspect=fixed;fontFamily=Times New Roman;fillColor=#d5e8d4;strokeColor=default;" vertex="1" parent="1">
          <mxGeometry x="610" y="160" width="20" height="20" as="geometry" />
        </mxCell>
        <mxCell id="n7IsdOz3dWg-6jc3cimt-65" style="edgeStyle=none;shape=connector;rounded=0;orthogonalLoop=1;jettySize=auto;html=1;entryX=0;entryY=0.5;entryDx=0;entryDy=0;strokeColor=default;align=center;verticalAlign=middle;fontFamily=Helvetica;fontSize=11;fontColor=default;labelBackgroundColor=default;endArrow=none;endFill=0;exitX=1;exitY=0.5;exitDx=0;exitDy=0;" edge="1" parent="1" source="n7IsdOz3dWg-6jc3cimt-67" target="n7IsdOz3dWg-6jc3cimt-72">
          <mxGeometry relative="1" as="geometry" />
        </mxCell>
        <mxCell id="n7IsdOz3dWg-6jc3cimt-66" style="edgeStyle=none;shape=connector;rounded=0;orthogonalLoop=1;jettySize=auto;html=1;exitX=1;exitY=0.5;exitDx=0;exitDy=0;entryX=0;entryY=0.5;entryDx=0;entryDy=0;strokeColor=default;align=center;verticalAlign=middle;fontFamily=Helvetica;fontSize=11;fontColor=default;labelBackgroundColor=default;endArrow=none;endFill=0;" edge="1" parent="1" source="n7IsdOz3dWg-6jc3cimt-67" target="n7IsdOz3dWg-6jc3cimt-71">
          <mxGeometry relative="1" as="geometry" />
        </mxCell>
        <mxCell id="n7IsdOz3dWg-6jc3cimt-67" value="3" style="ellipse;whiteSpace=wrap;html=1;aspect=fixed;fontFamily=Times New Roman;fillColor=#f8cecc;strokeColor=default;" vertex="1" parent="1">
          <mxGeometry x="610" y="190" width="20" height="20" as="geometry" />
        </mxCell>
        <mxCell id="n7IsdOz3dWg-6jc3cimt-68" style="edgeStyle=none;shape=connector;rounded=0;orthogonalLoop=1;jettySize=auto;html=1;exitX=1;exitY=0.5;exitDx=0;exitDy=0;entryX=0;entryY=0.5;entryDx=0;entryDy=0;strokeColor=default;align=center;verticalAlign=middle;fontFamily=Helvetica;fontSize=11;fontColor=default;labelBackgroundColor=default;endArrow=none;endFill=0;" edge="1" parent="1" source="n7IsdOz3dWg-6jc3cimt-69" target="n7IsdOz3dWg-6jc3cimt-73">
          <mxGeometry relative="1" as="geometry" />
        </mxCell>
        <mxCell id="n7IsdOz3dWg-6jc3cimt-69" value="4" style="ellipse;whiteSpace=wrap;html=1;aspect=fixed;fontFamily=Times New Roman;fillColor=#f8cecc;strokeColor=default;" vertex="1" parent="1">
          <mxGeometry x="610" y="220" width="20" height="20" as="geometry" />
        </mxCell>
        <mxCell id="n7IsdOz3dWg-6jc3cimt-70" value="A" style="ellipse;whiteSpace=wrap;html=1;aspect=fixed;fontFamily=Times New Roman;fillColor=#e1d5e7;strokeColor=#FF0000;" vertex="1" parent="1">
          <mxGeometry x="690" y="130" width="20" height="20" as="geometry" />
        </mxCell>
        <mxCell id="n7IsdOz3dWg-6jc3cimt-71" value="B" style="ellipse;whiteSpace=wrap;html=1;aspect=fixed;fontFamily=Times New Roman;fillColor=#dae8fc;strokeColor=#FF0000;" vertex="1" parent="1">
          <mxGeometry x="690" y="160" width="20" height="20" as="geometry" />
        </mxCell>
        <mxCell id="n7IsdOz3dWg-6jc3cimt-72" value="C" style="ellipse;whiteSpace=wrap;html=1;aspect=fixed;fontFamily=Times New Roman;fillColor=#ffe6cc;strokeColor=default;" vertex="1" parent="1">
          <mxGeometry x="690" y="190" width="20" height="20" as="geometry" />
        </mxCell>
        <mxCell id="n7IsdOz3dWg-6jc3cimt-73" value="D" style="ellipse;whiteSpace=wrap;html=1;aspect=fixed;fontFamily=Times New Roman;fillColor=#ffe6cc;strokeColor=default;" vertex="1" parent="1">
          <mxGeometry x="690" y="220" width="20" height="20" as="geometry" />
        </mxCell>
        <mxCell id="n7IsdOz3dWg-6jc3cimt-74" value="" style="endArrow=none;dashed=1;html=1;dashPattern=1 3;strokeWidth=1;rounded=0;strokeColor=#666666;align=center;verticalAlign=middle;fontFamily=Helvetica;fontSize=11;fontColor=default;labelBackgroundColor=default;fillColor=#f5f5f5;" edge="1" parent="1">
          <mxGeometry width="50" height="50" relative="1" as="geometry">
            <mxPoint x="609" y="185" as="sourcePoint" />
            <mxPoint x="631" y="185" as="targetPoint" />
          </mxGeometry>
        </mxCell>
        <mxCell id="n7IsdOz3dWg-6jc3cimt-75" value="" style="shape=flexArrow;endArrow=classic;html=1;rounded=0;align=center;verticalAlign=middle;fontFamily=Helvetica;fontSize=11;fontColor=default;labelBackgroundColor=default;shadow=0;flowAnimation=0;" edge="1" parent="1">
          <mxGeometry width="50" height="50" relative="1" as="geometry">
            <mxPoint x="569" y="184" as="sourcePoint" />
            <mxPoint x="601" y="184" as="targetPoint" />
          </mxGeometry>
        </mxCell>
        <mxCell id="n7IsdOz3dWg-6jc3cimt-76" style="edgeStyle=none;shape=connector;rounded=0;orthogonalLoop=1;jettySize=auto;html=1;strokeColor=default;align=center;verticalAlign=middle;fontFamily=Helvetica;fontSize=11;fontColor=default;labelBackgroundColor=default;endArrow=none;endFill=0;entryX=0;entryY=0.5;entryDx=0;entryDy=0;" edge="1" parent="1" source="n7IsdOz3dWg-6jc3cimt-77" target="n7IsdOz3dWg-6jc3cimt-86">
          <mxGeometry relative="1" as="geometry" />
        </mxCell>
        <mxCell id="n7IsdOz3dWg-6jc3cimt-77" value="1" style="ellipse;whiteSpace=wrap;html=1;aspect=fixed;fontFamily=Times New Roman;fillColor=#d5e8d4;strokeColor=#FF0000;" vertex="1" parent="1">
          <mxGeometry x="763" y="130" width="20" height="20" as="geometry" />
        </mxCell>
        <mxCell id="n7IsdOz3dWg-6jc3cimt-78" style="edgeStyle=none;shape=connector;rounded=0;orthogonalLoop=1;jettySize=auto;html=1;entryX=0;entryY=0.5;entryDx=0;entryDy=0;strokeColor=default;align=center;verticalAlign=middle;fontFamily=Helvetica;fontSize=11;fontColor=default;labelBackgroundColor=default;endArrow=none;endFill=0;exitX=1;exitY=0.5;exitDx=0;exitDy=0;" edge="1" parent="1" source="n7IsdOz3dWg-6jc3cimt-80" target="n7IsdOz3dWg-6jc3cimt-86">
          <mxGeometry relative="1" as="geometry" />
        </mxCell>
        <mxCell id="n7IsdOz3dWg-6jc3cimt-79" style="edgeStyle=none;shape=connector;rounded=0;orthogonalLoop=1;jettySize=auto;html=1;entryX=0;entryY=0.5;entryDx=0;entryDy=0;strokeColor=default;align=center;verticalAlign=middle;fontFamily=Helvetica;fontSize=11;fontColor=default;labelBackgroundColor=default;endArrow=none;endFill=0;" edge="1" parent="1" source="n7IsdOz3dWg-6jc3cimt-80" target="n7IsdOz3dWg-6jc3cimt-87">
          <mxGeometry relative="1" as="geometry" />
        </mxCell>
        <mxCell id="n7IsdOz3dWg-6jc3cimt-80" value="2" style="ellipse;whiteSpace=wrap;html=1;aspect=fixed;fontFamily=Times New Roman;fillColor=#CCCCCC;strokeColor=#FF0000;fontColor=#333333;" vertex="1" parent="1">
          <mxGeometry x="763" y="160" width="20" height="20" as="geometry" />
        </mxCell>
        <mxCell id="n7IsdOz3dWg-6jc3cimt-81" style="edgeStyle=none;shape=connector;rounded=0;orthogonalLoop=1;jettySize=auto;html=1;entryX=0;entryY=0.5;entryDx=0;entryDy=0;strokeColor=default;align=center;verticalAlign=middle;fontFamily=Helvetica;fontSize=11;fontColor=default;labelBackgroundColor=default;endArrow=none;endFill=0;exitX=1;exitY=0.5;exitDx=0;exitDy=0;" edge="1" parent="1" source="n7IsdOz3dWg-6jc3cimt-83" target="n7IsdOz3dWg-6jc3cimt-88">
          <mxGeometry relative="1" as="geometry" />
        </mxCell>
        <mxCell id="n7IsdOz3dWg-6jc3cimt-82" style="edgeStyle=none;shape=connector;rounded=0;orthogonalLoop=1;jettySize=auto;html=1;exitX=1;exitY=0.5;exitDx=0;exitDy=0;entryX=0;entryY=0.5;entryDx=0;entryDy=0;strokeColor=default;align=center;verticalAlign=middle;fontFamily=Helvetica;fontSize=11;fontColor=default;labelBackgroundColor=default;endArrow=none;endFill=0;" edge="1" parent="1" source="n7IsdOz3dWg-6jc3cimt-83" target="n7IsdOz3dWg-6jc3cimt-87">
          <mxGeometry relative="1" as="geometry" />
        </mxCell>
        <mxCell id="n7IsdOz3dWg-6jc3cimt-83" value="3" style="ellipse;whiteSpace=wrap;html=1;aspect=fixed;fontFamily=Times New Roman;fillColor=#FFCCFF;strokeColor=#FF0000;" vertex="1" parent="1">
          <mxGeometry x="763" y="190" width="20" height="20" as="geometry" />
        </mxCell>
        <mxCell id="n7IsdOz3dWg-6jc3cimt-84" style="edgeStyle=none;shape=connector;rounded=0;orthogonalLoop=1;jettySize=auto;html=1;exitX=1;exitY=0.5;exitDx=0;exitDy=0;entryX=0;entryY=0.5;entryDx=0;entryDy=0;strokeColor=default;align=center;verticalAlign=middle;fontFamily=Helvetica;fontSize=11;fontColor=default;labelBackgroundColor=default;endArrow=none;endFill=0;" edge="1" parent="1" source="n7IsdOz3dWg-6jc3cimt-85" target="n7IsdOz3dWg-6jc3cimt-89">
          <mxGeometry relative="1" as="geometry" />
        </mxCell>
        <mxCell id="n7IsdOz3dWg-6jc3cimt-85" value="4" style="ellipse;whiteSpace=wrap;html=1;aspect=fixed;fontFamily=Times New Roman;fillColor=#f8cecc;strokeColor=#FF0000;" vertex="1" parent="1">
          <mxGeometry x="763" y="220" width="20" height="20" as="geometry" />
        </mxCell>
        <mxCell id="n7IsdOz3dWg-6jc3cimt-86" value="A" style="ellipse;whiteSpace=wrap;html=1;aspect=fixed;fontFamily=Times New Roman;fillColor=#e1d5e7;strokeColor=default;" vertex="1" parent="1">
          <mxGeometry x="843" y="130" width="20" height="20" as="geometry" />
        </mxCell>
        <mxCell id="n7IsdOz3dWg-6jc3cimt-87" value="B" style="ellipse;whiteSpace=wrap;html=1;aspect=fixed;fontFamily=Times New Roman;fillColor=#dae8fc;strokeColor=default;" vertex="1" parent="1">
          <mxGeometry x="843" y="160" width="20" height="20" as="geometry" />
        </mxCell>
        <mxCell id="n7IsdOz3dWg-6jc3cimt-88" value="C" style="ellipse;whiteSpace=wrap;html=1;aspect=fixed;fontFamily=Times New Roman;fillColor=#ffe6cc;strokeColor=default;" vertex="1" parent="1">
          <mxGeometry x="843" y="190" width="20" height="20" as="geometry" />
        </mxCell>
        <mxCell id="n7IsdOz3dWg-6jc3cimt-89" value="D" style="ellipse;whiteSpace=wrap;html=1;aspect=fixed;fontFamily=Times New Roman;fillColor=#ffe6cc;strokeColor=default;" vertex="1" parent="1">
          <mxGeometry x="843" y="220" width="20" height="20" as="geometry" />
        </mxCell>
        <mxCell id="n7IsdOz3dWg-6jc3cimt-90" value="" style="endArrow=none;dashed=1;html=1;dashPattern=1 3;strokeWidth=1;rounded=0;strokeColor=#666666;align=center;verticalAlign=middle;fontFamily=Helvetica;fontSize=11;fontColor=default;labelBackgroundColor=default;fillColor=#f5f5f5;" edge="1" parent="1">
          <mxGeometry width="50" height="50" relative="1" as="geometry">
            <mxPoint x="762" y="185" as="sourcePoint" />
            <mxPoint x="784" y="185" as="targetPoint" />
          </mxGeometry>
        </mxCell>
        <mxCell id="n7IsdOz3dWg-6jc3cimt-91" value="" style="shape=flexArrow;endArrow=classic;html=1;rounded=0;align=center;verticalAlign=middle;fontFamily=Helvetica;fontSize=11;fontColor=default;labelBackgroundColor=default;shadow=0;flowAnimation=0;" edge="1" parent="1">
          <mxGeometry width="50" height="50" relative="1" as="geometry">
            <mxPoint x="722" y="184" as="sourcePoint" />
            <mxPoint x="754" y="184" as="targetPoint" />
          </mxGeometry>
        </mxCell>
        <mxCell id="n7IsdOz3dWg-6jc3cimt-108" value="" style="endArrow=none;dashed=1;html=1;dashPattern=1 3;strokeWidth=1;rounded=0;strokeColor=#666666;align=center;verticalAlign=middle;fontFamily=Helvetica;fontSize=11;fontColor=default;labelBackgroundColor=default;fillColor=#f5f5f5;" edge="1" parent="1">
          <mxGeometry width="50" height="50" relative="1" as="geometry">
            <mxPoint x="689" y="155" as="sourcePoint" />
            <mxPoint x="711" y="155" as="targetPoint" />
          </mxGeometry>
        </mxCell>
        <mxCell id="n7IsdOz3dWg-6jc3cimt-109" value="" style="endArrow=none;dashed=1;html=1;dashPattern=1 3;strokeWidth=1;rounded=0;strokeColor=#666666;align=center;verticalAlign=middle;fontFamily=Helvetica;fontSize=11;fontColor=default;labelBackgroundColor=default;fillColor=#f5f5f5;" edge="1" parent="1">
          <mxGeometry width="50" height="50" relative="1" as="geometry">
            <mxPoint x="689" y="185" as="sourcePoint" />
            <mxPoint x="711" y="185" as="targetPoint" />
          </mxGeometry>
        </mxCell>
        <mxCell id="n7IsdOz3dWg-6jc3cimt-110" value="" style="endArrow=none;dashed=1;html=1;dashPattern=1 3;strokeWidth=1;rounded=0;strokeColor=#666666;align=center;verticalAlign=middle;fontFamily=Helvetica;fontSize=11;fontColor=default;labelBackgroundColor=default;fillColor=#f5f5f5;" edge="1" parent="1">
          <mxGeometry width="50" height="50" relative="1" as="geometry">
            <mxPoint x="762" y="215" as="sourcePoint" />
            <mxPoint x="784" y="215" as="targetPoint" />
          </mxGeometry>
        </mxCell>
        <mxCell id="n7IsdOz3dWg-6jc3cimt-111" value="" style="endArrow=none;dashed=1;html=1;dashPattern=1 3;strokeWidth=1;rounded=0;strokeColor=#666666;align=center;verticalAlign=middle;fontFamily=Helvetica;fontSize=11;fontColor=default;labelBackgroundColor=default;fillColor=#f5f5f5;" edge="1" parent="1">
          <mxGeometry width="50" height="50" relative="1" as="geometry">
            <mxPoint x="762" y="155" as="sourcePoint" />
            <mxPoint x="784" y="155" as="targetPoint" />
          </mxGeometry>
        </mxCell>
        <mxCell id="n7IsdOz3dWg-6jc3cimt-112" value="" style="endArrow=none;dashed=1;html=1;dashPattern=1 3;strokeWidth=1;rounded=0;strokeColor=#666666;align=center;verticalAlign=middle;fontFamily=Helvetica;fontSize=11;fontColor=default;labelBackgroundColor=default;fillColor=#f5f5f5;" edge="1" parent="1">
          <mxGeometry width="50" height="50" relative="1" as="geometry">
            <mxPoint x="842" y="185" as="sourcePoint" />
            <mxPoint x="864" y="185" as="targetPoint" />
          </mxGeometry>
        </mxCell>
        <mxCell id="n7IsdOz3dWg-6jc3cimt-113" value="" style="endArrow=none;dashed=1;html=1;dashPattern=1 3;strokeWidth=1;rounded=0;strokeColor=#666666;align=center;verticalAlign=middle;fontFamily=Helvetica;fontSize=11;fontColor=default;labelBackgroundColor=default;fillColor=#f5f5f5;" edge="1" parent="1">
          <mxGeometry width="50" height="50" relative="1" as="geometry">
            <mxPoint x="842" y="155" as="sourcePoint" />
            <mxPoint x="864" y="155" as="targetPoint" />
          </mxGeometry>
        </mxCell>
      </root>
    </mxGraphModel>
  </diagram>
</mxfile>
